/* XPM */
static char * background_zelda_xpm[] = {
"64 64 2 1",
" 	c #A0B018",
".	c #88A830",
"                                                                ",
"                                                                ",
"                                                                ",
"                                                                ",
"                                                                ",
"                                                                ",
"                                                                ",
"                                                                ",
"                                                                ",
"                                                                ",
"                                                                ",
"                                                                ",
"                                                                ",
"                                                                ",
"                                                                ",
"                                                                ",
"                                                                ",
"                                                                ",
"                                                                ",
"                                                                ",
"                                                                ",
"                                                                ",
"                                                                ",
"                                                                ",
"                                                                ",
"                                                                ",
"                                                                ",
"                                                                ",
"                                                                ",
"                                                                ",
"                                                                ",
"                                                                ",
"                        ....                                    ",
"                        ....                                    ",
"                        ....                                    ",
"                        ....                                    ",
"                ....    ....                ....                ",
"                ....    ....                ....                ",
"                ....    ....                ....                ",
"                ....    ....                ....                ",
"....            ............                ....    ....        ",
"....            ............                ....    ....        ",
"....            ............                ....    ....        ",
"....            ............                ....    ....        ",
"....    ....        ....            ....    ............        ",
"....    ....        ....            ....    ............        ",
"....    ....        ....            ....    ............        ",
"....    ....        ....            ....    ............        ",
"............                        ....        ....            ",
"............                        ....        ....            ",
"............                        ....        ....            ",
"............                        ....        ....            ",
"    ....        ....                                            ",
"    ....        ....                                            ",
"    ....        ....                                            ",
"    ....        ....                                            ",
"                ....    ....                                    ",
"                ....    ....                                    ",
"                ....    ....                                    ",
"                ....    ....                                    ",
"                        ....                                    ",
"                        ....                                    ",
"                        ....                                    ",
"                        ....                                    "};
