/* XPM */
static char * background_zelda_xpm[] = {
"64 64 8 1",
" 	c #A0B018",
".	c #88A830",
"+	c #A09848",
"@	c #F85018",
"#	c #609818",
"$	c #50B8D8",
"%	c #F8E038",
"&	c #0888F8",
"                      ..                                        ",
"                      ..                                        ",
"                        ..  ..        ..                        ",
"                        ..  ..        ..                        ",
"..  ..                ++..++..        ..  ..    ..  ..          ",
"..  ..                ++..++..        ..  ..    ..  ..          ",
"......  ..            ++++++++    ..  ......    ......  ..      ",
"......  ..            ++++++++    ..  ......    ......  ..      ",
"  ........  ..                    ..    ..        ........  ..  ",
"  ........  ..                    ..    ..        ........  ..  ",
"  ..  ..    ....                                  ..  ..    ....",
"  ..  ..    ....                                  ..  ..    ....",
"..    ..      ..                                ..    ..      ..",
"..    ..      ..                                ..    ..      ..",
"..                                              ..              ",
"..                                    @@@@##  ##@@@@            ",
"      ..                              @@@@##  ##@@@@  ..        ",
"      ..                              @@@@@@  @@@@@@  ..        ",
"..    ..                              @@@@@@  @@@@@@  ..        ",
"..    ..                              ##@@@@$$@@@@##  ..        ",
"....  ##  ..    ..  ..                ##@@@@$$@@@@##  ##  ..    ",
"....  ##  ..    ..  ..                    $$$$$$      ##  ..    ",
"  ##++..++##    ......  ..                $$$$$$    ++..++##    ",
"  ##++..++##    ......  ..            ##@@@@$$@@@@##++..++##    ",
"++##++++##++++    ........  ..        ##@@@@$$@@@@##++++##++++  ",
"++##++++##++++    ........  ..        @@@@@@  @@@@@@++++##++++  ",
"@@@@%%%%      @@@@##  ..    ....      @@@@@@  @@@@@@++++##++++  ",
"@@@@%%%%      @@@@##  ..    ....      @@@@##  ##@@@@++++##++++  ",
"@@@@%%%%%%  %%%%%%##  ..      ..      @@@@##  ##@@@@++++++++    ",
"@@@@%%%%%%  %%%%%%##  ..      ..                ++++++++++++    ",
"      %%%%##%%%%                                    ++  ++      ",
"      %%%%##%%%%                                    ++  ++      ",
"@@@@    ######                                        ..        ",
"@@@@    ######                                        ..        ",
"@@@@  %%%%##%%%%                                        ..  ..  ",
"@@@@  %%%%##%%%%                                        ..  ..  ",
"    %%%%%%  %%%%%%##..          ..  ..                ++..++..  ",
"    %%%%%%  %%%%%%##..          ..  ..                ++..++..  ",
"  ##%%%%      %%%%##..  ..      ......  ..            ++++++++  ",
"  ##%%%%      %%%%##..  ..      ......  ..            ++++++++  ",
"  ########  ######  ......  ..    ........  ..                  ",
"  ########  ######  ......  ..    ........  ..                  ",
"                  ..  ..    ....  ..  ..    ....                ",
"                  ..  ..    ....  ..  ..    ....                ",
"                ..    ..      ....    ..      ..                ",
"                ..    ..      ....    ..      ..                ",
"                ..              ..                              ",
"                ..              ..                              ",
"      ..              ..              ..                        ",
"      ..              ..              ..                        ",
"        ..  ..  ..    ..        ..    ..                        ",
"        ..  ..  ..    ..        ..    ..                        ",
"      ++..++..  ....  ##  ..    ....  ##  ..    .$$$$  $$$$     ",
"      ++..++..  ....  ##  ..    ....  ##  ..    .$$$$  $$$$     ",
"      ++++++++    ##++..++##      ##++..++##    .$$$$&&$$$$     ",
"      ++++++++    ##++..++##      ##++..++##    .$$$$&&$$$$     ",
"                ++##++++##++++  ++##++++##++++     &&&&&&    .  ",
"                ++##++++##++++  ++##++++##++++     &&&&&&    .  ",
"                ++..++++##++++  ++..++++##++++   $$$$&&$$$$  ...",
"                ++..++++##++++  ++..++++##++++   $$$$&&$$$$  ...",
"                ++++++++++++    ++++++++++++    .$$$$  $$$$## ..",
"                ++++++++++++    ++++++++++++    .$$$$  $$$$## ..",
"                    ++  ++          ++  ++      .####  ######   ",
"                    ++  ++          ++  ++      .####  ######   "};
