/* XPM */
static char * collectable_xpm[] = {
"64 64 9 1",
" 	c #A0B018",
".	c #4AF718",
"+	c #21AD18",
"@	c #C6FF94",
"#	c #FFFFFF",
"$	c #187B18",
"%	c #31D618",
"&	c #88A830",
"*	c #000000",
"                                                                ",
"                                                                ",
"                                                                ",
"                                                                ",
"                                                                ",
"                                                                ",
"                                                                ",
"                                                                ",
"                                                                ",
"                                                                ",
"                                                                ",
"                                                                ",
"                                                                ",
"                                                                ",
"                                                                ",
"                                                                ",
"                              ..++                              ",
"                              ..++                              ",
"                          @@@@##++$$$$                          ",
"                          @@@@##++$$$$                          ",
"                      @@@@####@@%%++++$$$$                      ",
"                      @@@@####@@%%++++$$$$                      ",
"                    ..######@@@@@@@@%%++++$$                    ",
"                    ..######@@@@@@@@%%++++$$                    ",
"                    $$++++@@@@....@@@@%%%%++                    ",
"                    $$++++@@@@....@@@@%%%%++                    ",
"                    $$++++@@......@@##%%%%++                    ",
"                    $$++++@@......@@##%%%%++                    ",
"                    $$++++@@....@@@@@@%%%%++                    ",
"                    $$++++@@....@@@@@@%%%%++                    ",
"                    $$++++@@@@@@@@..@@%%%%++                    ",
"                    $$++++@@@@@@@@..@@%%%%++                    ",
"                    $$++++@@##@@..@@@@%%%%++                    ",
"                    $$++++@@##@@..@@@@%%%%++                    ",
"                    $$++++##@@..@@@@##%%%%++                    ",
"                    $$++++##@@..@@@@##%%%%++                    ",
"                &&&&$$++++##@@..@@####%%%%++&&&&                ",
"                &&&&$$++++##@@..@@####%%%%++&&&&                ",
"                &&&&$$++++@@@@@@######%%%%++&&&&                ",
"                &&&&$$++++@@@@@@######%%%%++&&&&                ",
"&&&&            &&&&**$$$$++@@####@@......%%&&&&    &&&&        ",
"&&&&            &&&&**$$$$++@@####@@......%%&&&&    &&&&        ",
"&&&&            &&&&&&****$$$$++......%%%%  &&&&    &&&&        ",
"&&&&            &&&&&&****$$$$++......%%%%  &&&&    &&&&        ",
"&&&&    &&&&        &&&&  ****$$..%%%%&&    &&&&&&&&&&&&        ",
"&&&&    &&&&        &&&&  ****$$..%%%%&&    &&&&&&&&&&&&        ",
"&&&&    &&&&        &&&&      **%%  &&&&    &&&&&&&&&&&&        ",
"&&&&    &&&&        &&&&      **%%  &&&&    &&&&&&&&&&&&        ",
"&&&&&&&&&&&&                        &&&&        &&&&            ",
"&&&&&&&&&&&&                        &&&&        &&&&            ",
"&&&&&&&&&&&&                        &&&&        &&&&            ",
"&&&&&&&&&&&&                        &&&&        &&&&            ",
"    &&&&        &&&&                                            ",
"    &&&&        &&&&                                            ",
"    &&&&        &&&&                                            ",
"    &&&&        &&&&                                            ",
"                &&&&    &&&&                                    ",
"                &&&&    &&&&                                    ",
"                &&&&    &&&&                                    ",
"                &&&&    &&&&                                    ",
"                        &&&&                                    ",
"                        &&&&                                    ",
"                        &&&&                                    ",
"                        &&&&                                    "};
