/* XPM */
static char * collectable_xpm[] = {
"64 64 14 1",
" 	c #A0B018",
".	c #88A830",
"+	c #A09848",
"@	c #F85018",
"#	c #609818",
"$	c #C65BEB",
"%	c #8D3DA9",
"&	c #DFB3EE",
"*	c #FFFFFF",
"=	c #62187B",
"-	c #50B8D8",
";	c #AD4DCE",
">	c #F8E038",
",	c #0888F8",
"                      ..                                        ",
"                      ..                                        ",
"                        ..  ..        ..                        ",
"                        ..  ..        ..                        ",
"..  ..                ++..++..        ..  ..    ..  ..          ",
"..  ..                ++..++..        ..  ..    ..  ..          ",
"......  ..            ++++++++    ..  ......    ......  ..      ",
"......  ..            ++++++++    ..  ......    ......  ..      ",
"  ........  ..                    ..    ..        ........  ..  ",
"  ........  ..                    ..    ..        ........  ..  ",
"  ..  ..    ....                                  ..  ..    ....",
"  ..  ..    ....                                  ..  ..    ....",
"..    ..      ..                                ..    ..      ..",
"..    ..      ..                                ..    ..      ..",
"..                                              ..              ",
"..                                    @@@@##  ##@@@@            ",
"      ..                      $$%%    @@@@##  ##@@@@  ..        ",
"      ..                      $$%%    @@@@@@  @@@@@@  ..        ",
"..    ..                  &&&&**%%====@@@@@@  @@@@@@  ..        ",
"..    ..                  &&&&**%%====##@@@@--@@@@##  ..        ",
"....  ##  ..    ..  ..&&&&****&&;;%%%%====@@--@@@@##  ##  ..    ",
"....  ##  ..    ..  ..&&&&****&&;;%%%%====------      ##  ..    ",
"  ##++..++##    ....$$******&&&&&&&&;;%%%%==----    ++..++##    ",
"  ##++..++##    ....$$******&&&&&&&&;;%%%%==--@@@@##++..++##    ",
"++##++++##++++    ..==%%%%&&&&$$$$&&&&;;;;%%--@@@@##++++##++++  ",
"++##++++##++++    ..==%%%%&&&&$$$$&&&&;;;;%%  @@@@@@++++##++++  ",
"@@@@>>>>      @@@@##==%%%%&&$$$$$$&&**;;;;%%  @@@@@@++++##++++  ",
"@@@@>>>>      @@@@##==%%%%&&$$$$$$&&**;;;;%%  ##@@@@++++##++++  ",
"@@@@>>>>>>  >>>>>>##==%%%%&&$$$$&&&&&&;;;;%%  ##@@@@++++++++    ",
"@@@@>>>>>>  >>>>>>##==%%%%&&$$$$&&&&&&;;;;%%    ++++++++++++    ",
"      >>>>##>>>>    ==%%%%&&&&&&&&$$&&;;;;%%        ++  ++      ",
"      >>>>##>>>>    ==%%%%&&&&&&&&$$&&;;;;%%        ++  ++      ",
"@@@@    ######      ==%%%%&&**&&$$&&&&;;;;%%          ..        ",
"@@@@    ######      ==%%%%&&**&&$$&&&&;;;;%%          ..        ",
"@@@@  >>>>##>>>>    ==%%%%**&&$$&&&&**;;;;%%            ..  ..  ",
"@@@@  >>>>##>>>>    ==%%%%**&&$$&&&&**;;;;%%            ..  ..  ",
"    >>>>>>  >>>>>>##==%%%%**&&$$&&****;;;;%%          ++..++..  ",
"    >>>>>>  >>>>>>##==%%%%**&&$$&&****;;;;%%          ++..++..  ",
"  ##>>>>      >>>>##==%%%%&&&&&&******;;;;%%          ++++++++  ",
"  ##>>>>      >>>>##==%%%%&&&&&&******;;;;%%          ++++++++  ",
"  ########  ######  ======%%&&****&&$$$$$$;;..                  ",
"  ########  ######  ======%%&&****&&$$$$$$;;..                  ",
"                  ..  ========%%$$$$$$;;;;  ....                ",
"                  ..  ========%%$$$$$$;;;;  ....                ",
"                ..    ..  ======$$;;;;..      ..                ",
"                ..    ..  ======$$;;;;..      ..                ",
"                ..            ==;;                              ",
"                ..            ==;;                              ",
"      ..              ..              ..                        ",
"      ..              ..              ..                        ",
"        ..  ..  ..    ..        ..    ..                        ",
"        ..  ..  ..    ..        ..    ..                        ",
"      ++..++..  ....  ##  ..    ....  ##  ..    .----  ----     ",
"      ++..++..  ....  ##  ..    ....  ##  ..    .----  ----     ",
"      ++++++++    ##++..++##      ##++..++##    .----,,----     ",
"      ++++++++    ##++..++##      ##++..++##    .----,,----     ",
"                ++##++++##++++  ++##++++##++++     ,,,,,,    .  ",
"                ++##++++##++++  ++##++++##++++     ,,,,,,    .  ",
"                ++..++++##++++  ++..++++##++++   ----,,----  ...",
"                ++..++++##++++  ++..++++##++++   ----,,----  ...",
"                ++++++++++++    ++++++++++++    .----  ----## ..",
"                ++++++++++++    ++++++++++++    .----  ----## ..",
"                    ++  ++          ++  ++      .####  ######   ",
"                    ++  ++          ++  ++      .####  ######   "};
