/* XPM */
static char * exit_zelda_xpm[] = {
"64 64 17 1",
" 	c #609818",
".	c #A8C818",
"+	c #186818",
"@	c #A0B018",
"#	c #685008",
"$	c #806808",
"%	c #908810",
"&	c #202008",
"*	c #986068",
"=	c #D09078",
"-	c #E8B088",
";	c #684050",
">	c #604868",
",	c #808098",
"'	c #A0B0C0",
")	c #F8E090",
"!	c #A8A818",
"  .  .     ++.  ..@   ++@@ .. ..     +..  .@@   ++@  .  ...  .  ",
"  .  .     ++.  ..@   ++@@ .. ..     +..  .@@   ++@  .  ...  .  ",
"##@##@####   @##.. ## ##  #..+@@###   @@##.  #  ## ##.++@@@##@##",
"@@$$$$$$$$$###$$@@#$$#$$##$..#  $$$$$###$$@##$##$$#$$.##  $$$$@@",
"@@$$$$$$$$$###$$@@#$$#$$##$..#  $$$$$###$$@##$##$$#$$.##  $$$$@@",
"$$$$$%$$%%%$$$$$$$###$$$$$$@@###$$%%%$$$$$$###$$$$$$$@####%$$$$$",
"..$%%%%%%%$%%###$$%%%%%%$$#$$$$$%%%$$%####$%%%%%%%$##$$$$$%%%$..",
"..$%%%%%%%$%%###$$%%%%%%$$#$$$$$%%%$$%####$%%%%%%%$##$$$$$%%%$..",
"$$$$$%  &&&&&&&&&&&&&&&&&&&&&&&&&&&&&&&&&&&&&&&&&&&&&&&&  %$$$$$",
"$$$$$%  &&&&&&&&&&&&&&&&&&&&&&&&&&&&&&&&&&&&&&&&&&&&&&&&  %$$$$$",
"..$$$%&&**====------------------------------------====**&&%$$$..",
"++#$$$&&==--------------------------------------------==&&$$$#++",
"++#$$$&&==--------------------------------------------==&&$$$#++",
"##$$$$&&==----==;;;;;;;;;;;;;;;;;;;;;;;;;;;;;;;;==----==&&$$$$##",
"..$$$%&&==----;;;;****************************;;;;----==&&%$$$..",
"..$$$%&&==----;;;;****************************;;;;----==&&%$$$..",
"++.$$$&&------;;********************************;;------&&$$$.++",
"++.$$$&&------;;********************************;;------&&$$$.++",
"###$$$&&------;;**&&&&&&&&&&&&&&&&&&&&&&&&&&&&**;;------&&$$$###",
"$$$$$%++------;;**&&&&&&&&&&&&&&&&&&&&&&&&&&&&**;;------++%$$$$$",
"$$$$$%++------;;**&&&&&&&&&&&&&&&&&&&&&&&&&&&&**;;------++%$$$$$",
"..$$$$++------;;**&&&&&&&&&&&&&&&&&&&&&&&&&&&&**;;------++$$$$..",
"++.$$$++------;;**&&&&&&&&&&&&&&&&&&&&&&&&&&&&**;;------++$$$.++",
"++.$$$++------;;**&&&&&&&&&&&&&&&&&&&&&&&&&&&&**;;------++$$$.++",
"###$$$++------;;**&&&&&&&&&&&&&&&&&&&&&&&&&&&&**;;------++$$$###",
"###$$$++------;;**&&&&&&&&&&&&&&&&&&&&&&&&&&&&**;;------++$$$###",
"..$$$$&&------;;**&&&&&&>>>>>>>>>>>>>>>>&&&&&&**;;------&&$$$$..",
"  .$$%&&------;;**&&&&&&>>>>>>>>>>>>>>>>&&&&&&**;;------&&%$$.  ",
"  .$$%&&------;;**&&&&&&>>>>>>>>>>>>>>>>&&&&&&**;;------&&%$$.  ",
"$$ $$%&&------;;**&&&&&&&&&&&&&&&&&&&&&&&&&&&&**;;------&&%$$ $$",
"$$$$$$&&==----;;**&&&>,,,,,,,,,,,,,,,,,,,,>&&&**;;----==&&$$$$$$",
"$$$$$$&&==----;;**&&&>,,,,,,,,,,,,,,,,,,,,>&&&**;;----==&&$$$$$$",
"..$$$$&&==----;;**&&&>,,,,,,,,,,,,,,,,,,,,>&&&**;;----==&&$$$$..",
"..$$$$&&==----;;**&&&>,,,,,,,,,,,,,,,,,,,,>&&&**;;----==&&$$$$..",
"$$$$$%&&==----;;**&&&&>>>>>>>>>>>>>>>>>>>>&&&&**;;----==&&%$$$$$",
"..$$$%&&==----;;**>,,'''''''''''''''''''''',,>**;;----==&&%$$$..",
"..$$$%&&==----;;**>,,'''''''''''''''''''''',,>**;;----==&&%$$$..",
"++#$$$&&==----;;**>''''''''''''''''''''''''''>**;;----==&&$$$#++",
"##$$$$&&------;;**>''''''''''''''''''''''''''>**;;------&&$$$$##",
"##$$$$&&------;;**>''''''''''''''''''''''''''>**;;------&&$$$$##",
"..$$$%&&------;;**>,,,,,,,,,,,,,,,,,,,,,,,,,,>**;;------&&%$$$..",
"..$$$%&&------;;**>,,,,,,,,,,,,,,,,,,,,,,,,,,>**;;------&&%$$$..",
"++.$$$&&------;;**&&&&&&&&&&&&&&&&&&&&&&&&&&&&**;;------&&$$$.++",
"###$$$++------************************************------++$$$###",
"###$$$++------************************************------++$$$###",
"$$$$$%++------------------------------------------------++%$$$$$",
"..$$$$++==--------============================--------==++$$$$..",
"..$$$$++==--------============================--------==++$$$$..",
"++.$$$&&==--------*))))))))))))))))))))))))))*--------==&&$$$.++",
"++.$$$&&==--------*))))))))))))))))))))))))))*--------==&&$$$.++",
"###$$$&&==------==*))))))))))))))))))))))))))*==------==&&$$$###",
"..$$$$&&========;;***======================***;;========&&$$$$..",
"..$$$$&&========;;***======================***;;========&&$$$$..",
"  .$$%&&********;;-))))))))))))))))))))))))))-;;********&&%$$.  ",
"$$ $$%&&********;;-))))))))))))))))))))))))))-;;********&&%$$ $$",
"$$ $$%&&********;;-))))))))))))))))))))))))))-;;********&&%$$ $$",
"$$$$$$&&**@*****;;;*****@@*@@******@@*@@*****;;;*****@**&&$$$$$$",
"$$$$$$&&**@*****;;;*****@@*@@******@@*@@*****;;;*****@**&&$$$$$$",
"..$$$$++;;@;;@;;;;@@@@@@@@@@@@@@@@@@@@@@@@@@@@;;;;@;;@;;++$$$$..",
"...%%%!!$$%%%%%%%%$%%%%%!!!$$%$$!!$%%%%%%%%$$%%%%%!!!$%%$$%%%...",
"...%%%!!$$%%%%%%%%$%%%%%!!!$$%$$!!$%%%%%%%%$$%%%%%!!!$%%$$%%%...",
"## %%$$$$$%%%$%%%%%%%%$$$$#$$%%%$$$%%%$$%%%%%%%%$$$##$%%%%$%% ##",
"$$%$$#%%%%@%%%%%@@$%%@$$%%%%%%$$%%%@@%%%%%@$$%@@$$%%%%%%$$#$$%$$",
"$$%$$#%%%%@%%%%%@@$%%@$$%%%%%%$$%%%@@%%%%%@$$%@@$$%%%%%%$$#$$%$$"};
