/* XPM */
static char * exit_zelda_xpm[] = {
"64 64 10 1",
" 	c #A0B018",
".	c #186818",
"+	c #A8C818",
"@	c #483808",
"#	c #609818",
"$	c #685008",
"%	c #806808",
"&	c #202008",
"*	c #908810",
"=	c #A8A818",
"                    ........++++....    ........                ",
"                    ........++++....    ........                ",
"                    ........++++....    ........                ",
"                    ........++++....    ........                ",
"        ++++........    @@@@    @@@@####@@@@@@@@....####        ",
"        ++++........    @@@@    @@@@####@@@@@@@@....####        ",
"        ++++........    @@@@    @@@@####@@@@@@@@....####        ",
"        ++++........    @@@@    @@@@####@@@@@@@@....####        ",
"    ####        @@@@####$$$$####$$$$%%%%$$$$@@@@@@@@++++        ",
"    ####        @@@@####$$$$####$$$$%%%%$$$$@@@@@@@@++++        ",
"    ####        @@@@####$$$$####$$$$%%%%$$$$@@@@@@@@++++        ",
"    ####        @@@@####$$$$####$$$$%%%%$$$$@@@@@@@@++++        ",
"    ....&&&&    $$$$%%%%%%%%%%%%$$$$%%%%%%%%$$$$++++    ####    ",
"    ....&&&&    $$$$%%%%%%%%%%%%$$$$%%%%%%%%$$$$++++    ####    ",
"    ....&&&&    $$$$%%%%%%%%%%%%$$$$%%%%%%%%$$$$++++    ####    ",
"    ....&&&&    $$$$%%%%%%%%%%%%$$$$%%%%%%%%$$$$++++    ####    ",
"####&&&&&&&&####$$$$%%%%%%%%%%%%%%%%%%%%%%%%%%%%    &&&&&&&&####",
"####&&&&&&&&####$$$$%%%%%%%%%%%%%%%%%%%%%%%%%%%%    &&&&&&&&####",
"####&&&&&&&&####$$$$%%%%%%%%%%%%%%%%%%%%%%%%%%%%    &&&&&&&&####",
"####&&&&&&&&####$$$$%%%%%%%%%%%%%%%%%%%%%%%%%%%%    &&&&&&&&####",
"....@@@@&&&&$$$$%%%%%%%%$$$$$$$$$$$$$$$$%%%%%%%%####&&&&@@@@....",
"....@@@@&&&&$$$$%%%%%%%%$$$$$$$$$$$$$$$$%%%%%%%%####&&&&@@@@....",
"....@@@@&&&&$$$$%%%%%%%%$$$$$$$$$$$$$$$$%%%%%%%%####&&&&@@@@....",
"....@@@@&&&&$$$$%%%%%%%%$$$$$$$$$$$$$$$$%%%%%%%%####&&&&@@@@....",
"    @@@@@@@@@@@@$$$$$$$$$$$$$$$$$$$$$$$$$$$$$$$$$$$$@@@@@@@@&&&&",
"    @@@@@@@@@@@@$$$$$$$$$$$$$$$$$$$$$$$$$$$$$$$$$$$$@@@@@@@@&&&&",
"    @@@@@@@@@@@@$$$$$$$$$$$$$$$$$$$$$$$$$$$$$$$$$$$$@@@@@@@@&&&&",
"    @@@@@@@@@@@@$$$$$$$$$$$$$$$$$$$$$$$$$$$$$$$$$$$$@@@@@@@@&&&&",
"########@@@@@@@@$$$$@@@@@@@@@@@@@@@@@@@@@@@@$$$$@@@@@@@@@@@@&&&&",
"########@@@@@@@@$$$$@@@@@@@@@@@@@@@@@@@@@@@@$$$$@@@@@@@@@@@@&&&&",
"########@@@@@@@@$$$$@@@@@@@@@@@@@@@@@@@@@@@@$$$$@@@@@@@@@@@@&&&&",
"########@@@@@@@@$$$$@@@@@@@@@@@@@@@@@@@@@@@@$$$$@@@@@@@@@@@@&&&&",
"&&&&####@@@@&&&&@@@@@@@@@@@@@@@@@@@@@@@@@@@@@@@@&&&&@@@@@@@@    ",
"&&&&####@@@@&&&&@@@@@@@@@@@@@@@@@@@@@@@@@@@@@@@@&&&&@@@@@@@@    ",
"&&&&####@@@@&&&&@@@@@@@@@@@@@@@@@@@@@@@@@@@@@@@@&&&&@@@@@@@@    ",
"&&&&####@@@@&&&&@@@@@@@@@@@@@@@@@@@@@@@@@@@@@@@@&&&&@@@@@@@@    ",
"&&&&....@@@@&&&&@@@@&&&&&&&&&&&&&&&&&&&&&&&&@@@@&&&&@@@@####&&&&",
"&&&&....@@@@&&&&@@@@&&&&&&&&&&&&&&&&&&&&&&&&@@@@&&&&@@@@####&&&&",
"&&&&....@@@@&&&&@@@@&&&&&&&&&&&&&&&&&&&&&&&&@@@@&&&&@@@@####&&&&",
"&&&&....@@@@&&&&@@@@&&&&&&&&&&&&&&&&&&&&&&&&@@@@&&&&@@@@####&&&&",
"&&&&@@@@&&&&&&&&&&&&$$$$********====****$$$$&&&&&&&&@@@@@@@@....",
"&&&&@@@@&&&&&&&&&&&&$$$$********====****$$$$&&&&&&&&@@@@@@@@....",
"&&&&@@@@&&&&&&&&&&&&$$$$********====****$$$$&&&&&&&&@@@@@@@@....",
"&&&&@@@@&&&&&&&&&&&&$$$$********====****$$$$&&&&&&&&@@@@@@@@....",
"....&&&&&&&&&&&&%%%%****%%%%****%%%%%%%%********&&&&&&&&&&&&....",
"....&&&&&&&&&&&&%%%%****%%%%****%%%%%%%%********&&&&&&&&&&&&....",
"....&&&&&&&&&&&&%%%%****%%%%****%%%%%%%%********&&&&&&&&&&&&....",
"....&&&&&&&&&&&&%%%%****%%%%****%%%%%%%%********&&&&&&&&&&&&....",
"    &&&&&&&&$$$$****$$$$@@@@****************%%%%$$$$&&&&....    ",
"    &&&&&&&&$$$$****$$$$@@@@****************%%%%$$$$&&&&....    ",
"    &&&&&&&&$$$$****$$$$@@@@****************%%%%$$$$&&&&....    ",
"    &&&&&&&&$$$$****$$$$@@@@****************%%%%$$$$&&&&....    ",
"    ####....    ####********####********$$$$$$$$####    ####    ",
"    ####....    ####********####********$$$$$$$$####    ####    ",
"    ####....    ####********####********$$$$$$$$####    ####    ",
"    ####....    ####********####********$$$$$$$$####    ####    ",
"        ++++####....********    ****####********....####        ",
"        ++++####....********    ****####********....####        ",
"        ++++####....********    ****####********....####        ",
"        ++++####....********    ****####********....####        ",
"                ####........    ....    ....####                ",
"                ####........    ....    ....####                ",
"                ####........    ....    ....####                ",
"                ####........    ....    ....####                "};
