/* XPM */
static char * link_back_xpm[] = {
"64 64 15 1",
" 	c #A0B018",
".	c #704020",
"+	c #A07840",
"@	c #000001",
"#	c #D8A850",
"$	c #F8F800",
"%	c #10F808",
"&	c #40A028",
"*	c #D0B088",
"=	c #107828",
"-	c #F8E0B8",
";	c #88A830",
">	c #B8F8A0",
",	c #781028",
"'	c #D82828",
"                           ...++++++++++...                     ",
"                           ...++++++++++...                     ",
"                           ...++++++++++...                     ",
"                        @@@###$$$$$$$$$$$$$$$$+++               ",
"                        @@@###$$$$$$$$$$$$$$$$+++               ",
"                        @@@###$$$$$$$$$$$$$$$$+++               ",
"                     @@@%%%%%%%%%%%%%%%%%%%$$$$$$+++            ",
"                     @@@%%%%%%%%%%%%%%%%%%%$$$$$$+++            ",
"                     @@@%%%%%%%%%%%%%%%%%%%$$$$$$+++            ",
"                  @@@%%%%%%%%%%%%%%%%%%%%%%%%%###$$$...         ",
"                  @@@%%%%%%%%%%%%%%%%%%%%%%%%%###$$$...         ",
"                  @@@%%%%%%%%%%%%%%%%%%%%%%%%%###$$$...         ",
"               @@@&&&%%%%%%%%%%%%%%%%%%%%%%%%%&&&@@@+++         ",
"               @@@&&&%%%%%%%%%%%%%%%%%%%%%%%%%&&&@@@+++         ",
"               @@@&&&%%%%%%%%%%%%%%%%%%%%%%%%%&&&@@@+++         ",
"               @@@&&&%%%%%%%%%%%%%%%%%%%%%%%%%&&&@@@            ",
"               @@@&&&%%%%%%%%%%%%%%%%%%%%%%%%%&&&@@@            ",
"               @@@&&&%%%%%%%%%%%%%%%%%%%%%%%%%&&&@@@            ",
"         +++***===&&&&&&%%%%%%%%%%%%%%%%%%%&&&&&&===***+++      ",
"         +++***===&&&&&&%%%%%%%%%%%%%%%%%%%&&&&&&===***+++      ",
"         +++***===&&&&&&%%%%%%%%%%%%%%%%%%%&&&&&&===***+++      ",
"      ...------===&&&&&&%%%%%%%%%%%%%%%%%%%&&&&&&===------      ",
"      ...------===&&&&&&%%%%%%%%%%%%%%%%%%%&&&&&&===------      ",
"      ...------===&&&&&&%%%%%%%%%%%%%%%%%%%&&&&&&===------      ",
"         ...+++===&&&===&&&%%%%%%%%%%%%%&&&===&&&===+++...      ",
"         ...+++===&&&===&&&%%%%%%%%%%%%%&&&===&&&===+++...      ",
"         ...+++===&&&===&&&%%%%%%%%%%%%%&&&===&&&===+++...      ",
"            ......===@@@&&&&&&%%%%%%%&&&&&&@@@===......         ",
"            ......===@@@&&&&&&%%%%%%%&&&&&&@@@===......         ",
"            ......===@@@&&&&&&%%%%%%%&&&&&&@@@===......         ",
"            @@@$$$...@@@&&&&&&&&&&&&&&&&&&&@@@...$$$@@@         ",
"            @@@$$$...@@@&&&&&&&&&&&&&&&&&&&@@@...$$$@@@         ",
"            @@@$$$...@@@&&&&&&&&&&&&&&&&&&&@@@...$$$@@@         ",
"            @@@$$$...@@@&&&&&&&&&&&&&&&&&&&@@@...$$$@@@         ",
"               @@@+++@@@===&&&&&&&&&&&&&===@@@+++@@@            ",
"               @@@+++@@@===&&&&&&&&&&&&&===@@@+++@@@            ",
"               @@@+++@@@===&&&&&&&&&&&&&===@@@+++@@@            ",
"                ;;@@@@@@@@@&&&&&&&&&&&&&@@@@@@@@@               ",
"                ;;@@@@@@@@@&&&&&&&&&&&&&@@@@@@@@@               ",
"                ;;@@@@@@@@@&&&&&&&&&&&&&@@@@@@@@@               ",
";;;;           @@@>>>===@@@===&&&&&&&===@@@===>>>@@@;;;;        ",
";;;;           @@@>>>===@@@===&&&&&&&===@@@===>>>@@@;;;;        ",
";;;;           @@@>>>===@@@===&&&&&&&===@@@===>>>@@@;;;;        ",
";;;;        @@@>>>>>>===&&&@@@&&&&&&&@@@&&&===>>>>>>@@@;        ",
";;;;    ;;;;@@@>>>>>>===&&&@@@&&&&&&&@@@&&&===>>>>>>@@@;        ",
";;;;    ;;;;@@@>>>>>>===&&&@@@&&&&&&&@@@&&&===>>>>>>@@@;        ",
";;;;    ;@@@------@@@...&&&@@@=======@@@&&&...@@@------@@@      ",
";;;;    ;@@@------@@@...&&&@@@=======@@@&&&...@@@------@@@      ",
";;;;;;;;;@@@------@@@...&&&@@@=======@@@&&&...@@@------@@@      ",
";;;;;;;;;@@@---***===%%%......@@@@@@@......%%%===***---@@@      ",
";;;;;;;;;@@@---***===%%%......@@@@@@@......%%%===***---@@@      ",
";;;;;;;;;@@@---***===%%%......@@@@@@@......%%%===***---@@@      ",
"    ;;;;    @@@@@@@@@%%%%%%%%%%%%%%%%%%%%%%%%%@@@@@@@@@         ",
"    ;;;;    @@@@@@@@@%%%%%%%%%%%%%%%%%%%%%%%%%@@@@@@@@@         ",
"    ;;;;    @@@@@@@@@%%%%%%%%%%%%%%%%%%%%%%%%%@@@@@@@@@         ",
"    ;;;;       @@@,,,@@@&&&%%%%%%%%%%%%%&&&@@@,,,@@@            ",
"               @@@,,,@@@&&&%%%%%%%%%%%%%&&&@@@,,,@@@            ",
"               @@@,,,@@@&&&%%%%%%%%%%%%%&&&@@@,,,@@@            ",
"                ;;@@@,,,''''''@@@@@@@'''''',,,@@@               ",
"                ;;@@@,,,''''''@@@@@@@'''''',,,@@@               ",
"                  @@@,,,''''''@@@@@@@'''''',,,@@@               ",
"                     @@@@@@@@@       @@@@@@@@@                  ",
"                     @@@@@@@@@       @@@@@@@@@                  ",
"                     @@@@@@@@@       @@@@@@@@@                  "};
