/* XPM */
static char * link_front_xpm[] = {
"64 64 17 1",
" 	c #A0B018",
".	c #000001",
"+	c #40A028",
"@	c #10F808",
"#	c #A07840",
"$	c #F8F800",
"%	c #D0B088",
"&	c #704020",
"*	c #D8A850",
"=	c #F8E0B8",
"-	c #F8F8F8",
";	c #3050F8",
">	c #88A830",
",	c #B8F8A0",
"'	c #107828",
")	c #D82828",
"!	c #781028",
"                        ..++++++++++++..                        ",
"                        ..++++++++++++..                        ",
"                        ..++++++++++++..                        ",
"                     ...++@@@@@@@@@@@@++...                     ",
"                     ...++@@@@@@@@@@@@++...                     ",
"                     ...++@@@@@@@@@@@@++...                     ",
"                  ...+++@@@@@@@@@@@@@@@@+++...                  ",
"                  ...+++@@@@@@@@@@@@@@@@+++...                  ",
"               ...+++@@@@@@@@@@@@@@@@@@@@@@+++...               ",
"               ...+++@@@@@@@@@@@@@@@@@@@@@@+++...               ",
"               ...+++@@@@@@@@@@@@@@@@@@@@@@+++...               ",
"               ...@@@###$$$$$$$$$$$$$$$$###@@@...               ",
"               ...@@@###$$$$$$$$$$$$$$$$###@@@...               ",
"               ...@@@###$$$$$$$$$$$$$$$$###@@@...               ",
"             ..+++###$$$$$$$$$$$$$$$$$$$$$$###+++..             ",
"             ..+++###$$$$$$$$$$$$$$$$$$$$$$###+++..             ",
"             ..+++###$$$$$$$$$$$$$$$$$$$$$$###+++..             ",
"       ###%%%&&&&&***$$$**$$$$$$$$$***##$$$$$$&&&&&%%%###       ",
"       ###%%%&&&&&***$$$**$$$$$$$$$***##$$$$$$&&&&&%%%###       ",
"       &&&=====###$$$###$$$$$$$$$$$###%%###$$$###=====&&&       ",
"       &&&=====###$$$###$$$$$$$$$$$###%%###$$$###=====&&&       ",
"       &&&=====###$$$###$$$$$$$$$$$###%%###$$$###=====&&&       ",
"          &&&%%&&&###***$$$$$***&&&%%%==###***###%%&&&          ",
"          &&&%%&&&###***$$$$$***&&&%%%==###***###%%&&&          ",
"          &&&%%&&&###***$$$$$***&&&%%%==###***###%%&&&          ",
"             &&$$$&&&*****###&&&%%%=====%%%&&&$$$&&             ",
"             &&$$$&&&*****###&&&%%%=====%%%&&&$$$&&             ",
"             &&$$$&&&*****###&&&%%%=====%%%&&&$$$&&             ",
"             ..$$$###...##&&&%%%===%%%&&...###$$$..             ",
"             ..$$$###...##&&&%%%===%%%&&...###$$$..             ",
"             ..$$$###...##&&&%%%===%%%&&...###$$$..             ",
"             ..***&&&---;;&&&======&&&;;---&&&***..             ",
"             ..***&&&---;;&&&======&&&;;---&&&***..             ",
"               ......===;;---======---;;===......               ",
"               ......===;;---======---;;===......               ",
"               ......===;;---======---;;===......               ",
"                >>...###================###...>>                ",
"                >>...###================###...>>                ",
"                >>...###================###...>>                ",
"               ...,,,&&&&&%%%%%%%%%%%%&&&&&,,,...               ",
">>>>           ...,,,&&&&&%%%%%%%%%%%%&&&&&,,,...   >>>>        ",
">>>>           ...,,,&&&&&%%%%%%%%%%%%&&&&&,,,...   >>>>        ",
">>>>         ..,,,,,,'''++++++++++++++++''',,,,,,.. >>>>        ",
">>>>         ..,,,,,,'''++++++++++++++++''',,,,,,.. >>>>        ",
">>>>    >>>> ..,,,,,,'''++++++++++++++++''',,,,,,..>>>>>        ",
">>>>    >>...=====...&&&++++++++++++++++&&&...=====...>>        ",
">>>>    >>...=====...&&&++++++++++++++++&&&...=====...>>        ",
">>>>    >>...%%==='''@@@&&&&&$$$$$$&&&&&@@@'''===%%...>>        ",
">>>>>>>>>>...%%==='''@@@&&&&&$$$$$$&&&&&@@@'''===%%...          ",
">>>>>>>>>>...%%==='''@@@&&&&&$$$$$$&&&&&@@@'''===%%...          ",
">>>>>>>>>>>> ........@@@@@+++$$$$$$+++@@@@@........>            ",
">>>>>>>>>>>> ........@@@@@+++$$$$$$+++@@@@@........>            ",
"    >>>>     ........@@@@@+++$$$$$$+++@@@@@........             ",
"    >>>>        >>......++@@@@@@@@@@@@++......                  ",
"    >>>>        >>......++@@@@@@@@@@@@++......                  ",
"    >>>>        >>......++@@@@@@@@@@@@++......                  ",
"               ...)))!!!................!!!)))...               ",
"               ...)))!!!................!!!)))...               ",
"               ...))))))!!...      ...!!))))))...               ",
"               ...))))))!!...      ...!!))))))...               ",
"               ...))))))!!...      ...!!))))))...               ",
"                  ........>>          ........                  ",
"                  ........>>          ........                  ",
"                  ........>>          ........                  "};
