/* XPM */
static char * wall_zelda_right_xpm[] = {
"64 64 8 1",
" 	c #A0B018",
".	c #609818",
"+	c #483808",
"@	c #202008",
"#	c #186818",
"$	c #908810",
"%	c #685008",
"&	c #806808",
"        ....++++++++++++++++++++@@@@@@@@@@@@@@@@@@@@@@@@@@@@@@@@",
"        ....++++++++++++++++++++@@@@@@@@@@@@@@@@@@@@@@@@@@@@@@@@",
"        ....++++++++++++++++++++@@@@@@@@@@@@@@@@@@@@@@@@@@@@@@@@",
"        ....++++++++++++++++++++@@@@@@@@@@@@@@@@@@@@@@@@@@@@@@@@",
"            ....####++++++++++++++++@@@@@@@@@@@@++++@@@@@@@@@@@@",
"            ....####++++++++++++++++@@@@@@@@@@@@++++@@@@@@@@@@@@",
"            ....####++++++++++++++++@@@@@@@@@@@@++++@@@@@@@@@@@@",
"            ....####++++++++++++++++@@@@@@@@@@@@++++@@@@@@@@@@@@",
"        ....####++++++++++++++++++++@@@@@@@@@@@@++++@@@@@@@@@@@@",
"        ....####++++++++++++++++++++@@@@@@@@@@@@++++@@@@@@@@@@@@",
"        ....####++++++++++++++++++++@@@@@@@@@@@@++++@@@@@@@@@@@@",
"        ....####++++++++++++++++++++@@@@@@@@@@@@++++@@@@@@@@@@@@",
"        ++++++++++++++++++++++++++++@@@@@@@@@@@@@@@@@@@@@@@@####",
"        ++++++++++++++++++++++++++++@@@@@@@@@@@@@@@@@@@@@@@@####",
"        ++++++++++++++++++++++++++++@@@@@@@@@@@@@@@@@@@@@@@@####",
"        ++++++++++++++++++++++++++++@@@@@@@@@@@@@@@@@@@@@@@@####",
"    ....++++++++++++++++++++++++++++++++@@@@@@@@@@@@++++@@@@....",
"    ....++++++++++++++++++++++++++++++++@@@@@@@@@@@@++++@@@@....",
"    ....++++++++++++++++++++++++++++++++@@@@@@@@@@@@++++@@@@....",
"    ....++++++++++++++++++++++++++++++++@@@@@@@@@@@@++++@@@@....",
"    $$$$####++++++++++++++++++++++++++++@@@@@@@@@@@@++++@@@@@@@@",
"    $$$$####++++++++++++++++++++++++++++@@@@@@@@@@@@++++@@@@@@@@",
"    $$$$####++++++++++++++++++++++++++++@@@@@@@@@@@@++++@@@@@@@@",
"    $$$$####++++++++++++++++++++++++++++@@@@@@@@@@@@++++@@@@@@@@",
"            ########++++++++++++++++++++++++@@@@@@@@++++++++@@@@",
"            ########++++++++++++++++++++++++@@@@@@@@++++++++@@@@",
"            ########++++++++++++++++++++++++@@@@@@@@++++++++@@@@",
"            ########++++++++++++++++++++++++@@@@@@@@++++++++@@@@",
"            ....++++++++++++++++@@@@++++++++++++@@@@@@@@++++@@@@",
"            ....++++++++++++++++@@@@++++++++++++@@@@@@@@++++@@@@",
"            ....++++++++++++++++@@@@++++++++++++@@@@@@@@++++@@@@",
"            ....++++++++++++++++@@@@++++++++++++@@@@@@@@++++@@@@",
"                ........########%%%%%%%%++++++++++++@@@@@@@@@@@@",
"                ........########%%%%%%%%++++++++++++@@@@@@@@@@@@",
"                ........########%%%%%%%%++++++++++++@@@@@@@@@@@@",
"                ........########%%%%%%%%++++++++++++@@@@@@@@@@@@",
"            ....++++%%%%&&&&&&&&&&&&&&&&%%%%%%%%%%%%@@@@@@@@####",
"            ....++++%%%%&&&&&&&&&&&&&&&&%%%%%%%%%%%%@@@@@@@@####",
"            ....++++%%%%&&&&&&&&&&&&&&&&%%%%%%%%%%%%@@@@@@@@####",
"            ....++++%%%%&&&&&&&&&&&&&&&&%%%%%%%%%%%%@@@@@@@@####",
"                ####%%%%%%%%%%%%%%%%@@@@@@@@@@@@@@@@@@@@@@@@....",
"                ####%%%%%%%%%%%%%%%%@@@@@@@@@@@@@@@@@@@@@@@@....",
"                ####%%%%%%%%%%%%%%%%@@@@@@@@@@@@@@@@@@@@@@@@....",
"                ####%%%%%%%%%%%%%%%%@@@@@@@@@@@@@@@@@@@@@@@@....",
"            ####++++++++++++++++@@@@@@@@@@@@@@@@++++@@@@####    ",
"            ####++++++++++++++++@@@@@@@@@@@@@@@@++++@@@@####    ",
"            ####++++++++++++++++@@@@@@@@@@@@@@@@++++@@@@####    ",
"            ####++++++++++++++++@@@@@@@@@@@@@@@@++++@@@@####    ",
"        ....++++++++++++++++++++@@@@@@@@@@@@@@@@++++@@@@....    ",
"        ....++++++++++++++++++++@@@@@@@@@@@@@@@@++++@@@@....    ",
"        ....++++++++++++++++++++@@@@@@@@@@@@@@@@++++@@@@....    ",
"        ....++++++++++++++++++++@@@@@@@@@@@@@@@@++++@@@@....    ",
"            ....++++++++++++++++@@@@@@@@@@@@@@@@++++@@@@@@@@    ",
"            ....++++++++++++++++@@@@@@@@@@@@@@@@++++@@@@@@@@    ",
"            ....++++++++++++++++@@@@@@@@@@@@@@@@++++@@@@@@@@    ",
"            ....++++++++++++++++@@@@@@@@@@@@@@@@++++@@@@@@@@    ",
"                ....####++++++++++++@@@@@@@@@@@@@@@@@@@@@@@@    ",
"                ....####++++++++++++@@@@@@@@@@@@@@@@@@@@@@@@    ",
"                ....####++++++++++++@@@@@@@@@@@@@@@@@@@@@@@@    ",
"                ....####++++++++++++@@@@@@@@@@@@@@@@@@@@@@@@    ",
"            ....++++++++++++++++++++@@@@@@@@@@@@@@@@++++@@@@    ",
"            ....++++++++++++++++++++@@@@@@@@@@@@@@@@++++@@@@    ",
"            ....++++++++++++++++++++@@@@@@@@@@@@@@@@++++@@@@    ",
"            ....++++++++++++++++++++@@@@@@@@@@@@@@@@++++@@@@    "};
