/* XPM */
static char * wall_zelda_xpm[] = {
"64 64 13 1",
" 	c #A0B018",
".	c #20B068",
"+	c #905848",
"@	c #603028",
"#	c #40C068",
"$	c #E0D078",
"%	c #202008",
"&	c #C8B060",
"*	c #B88858",
"=	c #188040",
"-	c #609818",
";	c #186818",
">	c #106020",
"            ....++++@@@@@@@@@@@@@@@@....                        ",
"            ....++++@@@@@@@@@@@@@@@@....                        ",
"            ....++++@@@@@@@@@@@@@@@@....                        ",
"            ....++++@@@@@@@@@@@@@@@@....                        ",
"        @@@@++++####$$$$$$$$$$$$####@@@@%%%%%%%%                ",
"        @@@@++++####$$$$$$$$$$$$####@@@@%%%%%%%%                ",
"        @@@@++++####$$$$$$$$$$$$####@@@@%%%%%%%%                ",
"        @@@@++++####$$$$$$$$$$$$####@@@@%%%%%%%%                ",
"    @@@@$$$$$$$$&&&&####$$$$####&&&&$$$$****++++%%%%            ",
"    @@@@$$$$$$$$&&&&####$$$$####&&&&$$$$****++++%%%%            ",
"    @@@@$$$$$$$$&&&&####$$$$####&&&&$$$$****++++%%%%            ",
"    @@@@$$$$$$$$&&&&####$$$$####&&&&$$$$****++++%%%%            ",
"    @@@@$$$$$$$$$$$$&&&&########$$$$$$$$$$$$****++++%%%%        ",
"    @@@@$$$$$$$$$$$$&&&&########$$$$$$$$$$$$****++++%%%%        ",
"    @@@@$$$$$$$$$$$$&&&&########$$$$$$$$$$$$****++++%%%%        ",
"    @@@@$$$$$$$$$$$$&&&&########$$$$$$$$$$$$****++++%%%%        ",
"%%%%@@@@$$$$$$$$$$$$$$$$####&&&&$$$$$$$$$$$$++++++++%%%%        ",
"%%%%@@@@$$$$$$$$$$$$$$$$####&&&&$$$$$$$$$$$$++++++++%%%%        ",
"%%%%@@@@$$$$$$$$$$$$$$$$####&&&&$$$$$$$$$$$$++++++++%%%%        ",
"%%%%@@@@$$$$$$$$$$$$$$$$####&&&&$$$$$$$$$$$$++++++++%%%%        ",
"%%%%++++$$$$$$$$########&&&&####$$$$$$$$****++++++++@@@@%%%%    ",
"%%%%++++$$$$$$$$########&&&&####$$$$$$$$****++++++++@@@@%%%%    ",
"%%%%++++$$$$$$$$########&&&&####$$$$$$$$****++++++++@@@@%%%%    ",
"%%%%++++$$$$$$$$########&&&&####$$$$$$$$****++++++++@@@@%%%%    ",
"%%%%++++$$$$$$$$####&&&&$$$$....$$$$********@@@@++++****$$$$%%%%",
"%%%%++++$$$$$$$$####&&&&$$$$....$$$$********@@@@++++****$$$$%%%%",
"%%%%++++$$$$$$$$####&&&&$$$$....$$$$********@@@@++++****$$$$%%%%",
"%%%%++++$$$$$$$$####&&&&$$$$....$$$$********@@@@++++****$$$$%%%%",
"%%%%++++&&&&####....@@@@++++....****@@@@++++@@@@****$$$$$$$$%%%%",
"%%%%++++&&&&####....@@@@++++....****@@@@++++@@@@****$$$$$$$$%%%%",
"%%%%++++&&&&####....@@@@++++....****@@@@++++@@@@****$$$$$$$$%%%%",
"%%%%++++&&&&####....@@@@++++....****@@@@++++@@@@****$$$$$$$$%%%%",
"%%%%++++&&&&....====@@@@++++....====@@@@++++@@@@@@@@$$$$$$$$%%%%",
"%%%%++++&&&&....====@@@@++++....====@@@@++++@@@@@@@@$$$$$$$$%%%%",
"%%%%++++&&&&....====@@@@++++....====@@@@++++@@@@@@@@$$$$$$$$%%%%",
"%%%%++++&&&&....====@@@@++++....====@@@@++++@@@@@@@@$$$$$$$$%%%%",
"@@@@++++++++....====@@@@++++....====@@@@++++@@@@@@@@----@@@@%%%%",
"@@@@++++++++....====@@@@++++....====@@@@++++@@@@@@@@----@@@@%%%%",
"@@@@++++++++....====@@@@++++....====@@@@++++@@@@@@@@----@@@@%%%%",
"@@@@++++++++....====@@@@++++....====@@@@++++@@@@@@@@----@@@@%%%%",
"@@@@++++++++====@@@@@@@@++++....;;;;----@@@@@@@@%%%%----%%%%;;;;",
"@@@@++++++++====@@@@@@@@++++....;;;;----@@@@@@@@%%%%----%%%%;;;;",
"@@@@++++++++====@@@@@@@@++++....;;;;----@@@@@@@@%%%%----%%%%;;;;",
"@@@@++++++++====@@@@@@@@++++....;;;;----@@@@@@@@%%%%----%%%%;;;;",
"%%%%>>>>====>>>>@@@@@@@@>>>>====;;;;;;;;@@@@%%%%;;;;;;;;;;;;;;;;",
"%%%%>>>>====>>>>@@@@@@@@>>>>====;;;;;;;;@@@@%%%%;;;;;;;;;;;;;;;;",
"%%%%>>>>====>>>>@@@@@@@@>>>>====;;;;;;;;@@@@%%%%;;;;;;;;;;;;;;;;",
"%%%%>>>>====>>>>@@@@@@@@>>>>====;;;;;;;;@@@@%%%%;;;;;;;;;;;;;;;;",
";;;;>>>>====>>>>@@@@@@@@>>>>====>>>>@@@@%%%%%%%%%%%%;;;;        ",
";;;;>>>>====>>>>@@@@@@@@>>>>====>>>>@@@@%%%%%%%%%%%%;;;;        ",
";;;;>>>>====>>>>@@@@@@@@>>>>====>>>>@@@@%%%%%%%%%%%%;;;;        ",
";;;;>>>>====>>>>@@@@@@@@>>>>====>>>>@@@@%%%%%%%%%%%%;;;;        ",
"    >>>>====>>>>@@@@---->>>>====>>>>@@@@&&&&####$$$$%%%%        ",
"    >>>>====>>>>@@@@---->>>>====>>>>@@@@&&&&####$$$$%%%%        ",
"    >>>>====>>>>@@@@---->>>>====>>>>@@@@&&&&####$$$$%%%%        ",
"    >>>>====>>>>@@@@---->>>>====>>>>@@@@&&&&####$$$$%%%%        ",
"        ====>>>>@@@@    >>>>====>>>>@@@@@@@@....****%%%%;;;;----",
"        ====>>>>@@@@    >>>>====>>>>@@@@@@@@....****%%%%;;;;----",
"        ====>>>>@@@@    >>>>====>>>>@@@@@@@@....****%%%%;;;;----",
"        ====>>>>@@@@    >>>>====>>>>@@@@@@@@....****%%%%;;;;----",
"        --------        ---->>>>--------@@@@====@@@@;;;;--------",
"        --------        ---->>>>--------@@@@====@@@@;;;;--------",
"        --------        ---->>>>--------@@@@====@@@@;;;;--------",
"        --------        ---->>>>--------@@@@====@@@@;;;;--------"};
