/* XPM */
static char * wall_zelda_top_xpm[] = {
"64 64 7 1",
" 	c #202008",
".	c #186818",
"+	c #609818",
"@	c #483808",
"#	c #806808",
"$	c #685008",
"%	c #A0B018",
"            ....++++....        ++++        ....++++++++++++....",
"            ....++++....        ++++        ....++++++++++++....",
"            ....++++....        ++++        ....++++++++++++....",
"            ....++++....        ++++        ....++++++++++++....",
"@@@@@@@@@@@@    ....    @@@@@@@@    @@@@@@@@        ....    ####",
"@@@@@@@@@@@@    ....    @@@@@@@@    @@@@@@@@        ....    ####",
"@@@@@@@@@@@@    ....    @@@@@@@@    @@@@@@@@        ....    ####",
"@@@@@@@@@@@@    ....    @@@@@@@@    @@@@@@@@        ....    ####",
"@@@@@@@@@@@@            @@@@@@@@@@@@@@@@@@@@@@@@@@@@    ....    ",
"@@@@@@@@@@@@            @@@@@@@@@@@@@@@@@@@@@@@@@@@@    ....    ",
"@@@@@@@@@@@@            @@@@@@@@@@@@@@@@@@@@@@@@@@@@    ....    ",
"@@@@@@@@@@@@            @@@@@@@@@@@@@@@@@@@@@@@@@@@@    ....    ",
"@@@@@@@@@@@@        @@@@@@@@@@@@@@@@@@@@$$$$@@@@@@@@            ",
"@@@@@@@@@@@@        @@@@@@@@@@@@@@@@@@@@$$$$@@@@@@@@            ",
"@@@@@@@@@@@@        @@@@@@@@@@@@@@@@@@@@$$$$@@@@@@@@            ",
"@@@@@@@@@@@@        @@@@@@@@@@@@@@@@@@@@$$$$@@@@@@@@            ",
"@@@@@@@@@@@@$$$$    @@@@@@@@@@@@@@@@@@@@$$$$@@@@@@@@            ",
"@@@@@@@@@@@@$$$$    @@@@@@@@@@@@@@@@@@@@$$$$@@@@@@@@            ",
"@@@@@@@@@@@@$$$$    @@@@@@@@@@@@@@@@@@@@$$$$@@@@@@@@            ",
"@@@@@@@@@@@@$$$$    @@@@@@@@@@@@@@@@@@@@$$$$@@@@@@@@            ",
"@@@@@@@@@@@@$$$$    @@@@@@@@@@@@@@@@@@@@$$$$@@@@@@@@        @@@@",
"@@@@@@@@@@@@$$$$    @@@@@@@@@@@@@@@@@@@@$$$$@@@@@@@@        @@@@",
"@@@@@@@@@@@@$$$$    @@@@@@@@@@@@@@@@@@@@$$$$@@@@@@@@        @@@@",
"@@@@@@@@@@@@$$$$    @@@@@@@@@@@@@@@@@@@@$$$$@@@@@@@@        @@@@",
"@@@@@@@@@@@@$$$$@@@@@@@@@@@@@@@@@@@@@@@@$$$$$$$$@@@@@@@@    @@@@",
"@@@@@@@@@@@@$$$$@@@@@@@@@@@@@@@@@@@@@@@@$$$$$$$$@@@@@@@@    @@@@",
"@@@@@@@@@@@@$$$$@@@@@@@@@@@@@@@@@@@@@@@@$$$$$$$$@@@@@@@@    @@@@",
"@@@@@@@@@@@@$$$$@@@@@@@@@@@@@@@@@@@@@@@@$$$$$$$$@@@@@@@@    @@@@",
"@@@@@@@@@@@@$$$$@@@@@@@@@@@@@@@@@@@@$$$$$$$$$$$$@@@@@@@@    @@@@",
"@@@@@@@@@@@@$$$$@@@@@@@@@@@@@@@@@@@@$$$$$$$$$$$$@@@@@@@@    @@@@",
"@@@@@@@@@@@@$$$$@@@@@@@@@@@@@@@@@@@@$$$$$$$$$$$$@@@@@@@@    @@@@",
"@@@@@@@@@@@@$$$$@@@@@@@@@@@@@@@@@@@@$$$$$$$$$$$$@@@@@@@@    @@@@",
"@@@@@@@@$$$$####@@@@@@@@@@@@@@@@@@@@$$$$####$$$$@@@@@@@@    @@@@",
"@@@@@@@@$$$$####@@@@@@@@@@@@@@@@@@@@$$$$####$$$$@@@@@@@@    @@@@",
"@@@@@@@@$$$$####@@@@@@@@@@@@@@@@@@@@$$$$####$$$$@@@@@@@@    @@@@",
"@@@@@@@@$$$$####@@@@@@@@@@@@@@@@@@@@$$$$####$$$$@@@@@@@@    @@@@",
"@@@@@@@@$$$$####@@@@@@@@@@@@@@@@@@@@$$$$####$$$$@@@@@@@@@@@@@@@@",
"@@@@@@@@$$$$####@@@@@@@@@@@@@@@@@@@@$$$$####$$$$@@@@@@@@@@@@@@@@",
"@@@@@@@@$$$$####@@@@@@@@@@@@@@@@@@@@$$$$####$$$$@@@@@@@@@@@@@@@@",
"@@@@@@@@$$$$####@@@@@@@@@@@@@@@@@@@@$$$$####$$$$@@@@@@@@@@@@@@@@",
"@@@@@@@@$$$$####@@@@@@@@@@@@@@@@@@@@$$$$####$$$$@@@@@@@@@@@@@@@@",
"@@@@@@@@$$$$####@@@@@@@@@@@@@@@@@@@@$$$$####$$$$@@@@@@@@@@@@@@@@",
"@@@@@@@@$$$$####@@@@@@@@@@@@@@@@@@@@$$$$####$$$$@@@@@@@@@@@@@@@@",
"@@@@@@@@$$$$####@@@@@@@@@@@@@@@@@@@@$$$$####$$$$@@@@@@@@@@@@@@@@",
"@@@@@@@@$$$$$$$$@@@@@@@@@@@@@@@@@@@@$$$$$$$$$$$$@@@@....@@@@@@@@",
"@@@@@@@@$$$$$$$$@@@@@@@@@@@@@@@@@@@@$$$$$$$$$$$$@@@@....@@@@@@@@",
"@@@@@@@@$$$$$$$$@@@@@@@@@@@@@@@@@@@@$$$$$$$$$$$$@@@@....@@@@@@@@",
"@@@@@@@@$$$$$$$$@@@@@@@@@@@@@@@@@@@@$$$$$$$$$$$$@@@@....@@@@@@@@",
"@@@@@@@@@@@@$$$$....@@@@@@@@....@@@@$$$$@@@@$$$$@@@@++++    @@@@",
"@@@@@@@@@@@@$$$$....@@@@@@@@....@@@@$$$$@@@@$$$$@@@@++++    @@@@",
"@@@@@@@@@@@@$$$$....@@@@@@@@....@@@@$$$$@@@@$$$$@@@@++++    @@@@",
"@@@@@@@@@@@@$$$$....@@@@@@@@....@@@@$$$$@@@@$$$$@@@@++++    @@@@",
"@@@@@@@@....@@@@++++@@@@@@@@++++@@@@@@@@....@@@@@@@@++++@@@@....",
"@@@@@@@@....@@@@++++@@@@@@@@++++@@@@@@@@....@@@@@@@@++++@@@@....",
"@@@@@@@@....@@@@++++@@@@@@@@++++@@@@@@@@....@@@@@@@@++++@@@@....",
"@@@@@@@@....@@@@++++@@@@@@@@++++@@@@@@@@....@@@@@@@@++++@@@@....",
"%%%%....++++....++++....%%%%%%%%%%%%....++++@@@@....%%%%%%%%%%%%",
"%%%%....++++....++++....%%%%%%%%%%%%....++++@@@@....%%%%%%%%%%%%",
"%%%%....++++....++++....%%%%%%%%%%%%....++++@@@@....%%%%%%%%%%%%",
"%%%%....++++....++++....%%%%%%%%%%%%....++++@@@@....%%%%%%%%%%%%",
"%%%%%%%%%%%%%%%%%%%%%%%%%%%%%%%%%%%%%%%%%%%%%%%%%%%%%%%%%%%%%%%%",
"%%%%%%%%%%%%%%%%%%%%%%%%%%%%%%%%%%%%%%%%%%%%%%%%%%%%%%%%%%%%%%%%",
"%%%%%%%%%%%%%%%%%%%%%%%%%%%%%%%%%%%%%%%%%%%%%%%%%%%%%%%%%%%%%%%%",
"%%%%%%%%%%%%%%%%%%%%%%%%%%%%%%%%%%%%%%%%%%%%%%%%%%%%%%%%%%%%%%%%"};
