/* XPM */
static char * wall_zelda_left_xpm[] = {
"64 64 8 1",
" 	c #202008",
".	c #483808",
"+	c #609818",
"@	c #A0B018",
"#	c #186818",
"$	c #908810",
"%	c #685008",
"&	c #806808",
"                                ....................++++@@@@@@@@",
"                                ....................++++@@@@@@@@",
"                                ....................++++@@@@@@@@",
"                                ....................++++@@@@@@@@",
"            ....            ................####++++@@@@@@@@@@@@",
"            ....            ................####++++@@@@@@@@@@@@",
"            ....            ................####++++@@@@@@@@@@@@",
"            ....            ................####++++@@@@@@@@@@@@",
"            ....            ....................####++++@@@@@@@@",
"            ....            ....................####++++@@@@@@@@",
"            ....            ....................####++++@@@@@@@@",
"            ....            ....................####++++@@@@@@@@",
"####                        ............................@@@@@@@@",
"####                        ............................@@@@@@@@",
"####                        ............................@@@@@@@@",
"####                        ............................@@@@@@@@",
"++++    ....            ................................++++@@@@",
"++++    ....            ................................++++@@@@",
"++++    ....            ................................++++@@@@",
"++++    ....            ................................++++@@@@",
"        ....            ............................####$$$$@@@@",
"        ....            ............................####$$$$@@@@",
"        ....            ............................####$$$$@@@@",
"        ....            ............................####$$$$@@@@",
"    ........        ........................########@@@@@@@@@@@@",
"    ........        ........................########@@@@@@@@@@@@",
"    ........        ........................########@@@@@@@@@@@@",
"    ........        ........................########@@@@@@@@@@@@",
"    ....        ............    ................++++@@@@@@@@@@@@",
"    ....        ............    ................++++@@@@@@@@@@@@",
"    ....        ............    ................++++@@@@@@@@@@@@",
"    ....        ............    ................++++@@@@@@@@@@@@",
"            ............%%%%%%%%########++++++++@@@@@@@@@@@@@@@@",
"            ............%%%%%%%%########++++++++@@@@@@@@@@@@@@@@",
"            ............%%%%%%%%########++++++++@@@@@@@@@@@@@@@@",
"            ............%%%%%%%%########++++++++@@@@@@@@@@@@@@@@",
"####        %%%%%%%%%%%%&&&&&&&&&&&&&&&&%%%%....++++@@@@@@@@@@@@",
"####        %%%%%%%%%%%%&&&&&&&&&&&&&&&&%%%%....++++@@@@@@@@@@@@",
"####        %%%%%%%%%%%%&&&&&&&&&&&&&&&&%%%%....++++@@@@@@@@@@@@",
"####        %%%%%%%%%%%%&&&&&&&&&&&&&&&&%%%%....++++@@@@@@@@@@@@",
"++++                        %%%%%%%%%%%%%%%%####@@@@@@@@@@@@@@@@",
"++++                        %%%%%%%%%%%%%%%%####@@@@@@@@@@@@@@@@",
"++++                        %%%%%%%%%%%%%%%%####@@@@@@@@@@@@@@@@",
"++++                        %%%%%%%%%%%%%%%%####@@@@@@@@@@@@@@@@",
"@@@@####    ....                ................####@@@@@@@@@@@@",
"@@@@####    ....                ................####@@@@@@@@@@@@",
"@@@@####    ....                ................####@@@@@@@@@@@@",
"@@@@####    ....                ................####@@@@@@@@@@@@",
"@@@@++++    ....                ....................++++@@@@@@@@",
"@@@@++++    ....                ....................++++@@@@@@@@",
"@@@@++++    ....                ....................++++@@@@@@@@",
"@@@@++++    ....                ....................++++@@@@@@@@",
"@@@@        ....                ................++++@@@@@@@@@@@@",
"@@@@        ....                ................++++@@@@@@@@@@@@",
"@@@@        ....                ................++++@@@@@@@@@@@@",
"@@@@        ....                ................++++@@@@@@@@@@@@",
"@@@@                        ............####++++@@@@@@@@@@@@@@@@",
"@@@@                        ............####++++@@@@@@@@@@@@@@@@",
"@@@@                        ............####++++@@@@@@@@@@@@@@@@",
"@@@@                        ............####++++@@@@@@@@@@@@@@@@",
"@@@@    ....                ....................++++@@@@@@@@@@@@",
"@@@@    ....                ....................++++@@@@@@@@@@@@",
"@@@@    ....                ....................++++@@@@@@@@@@@@",
"@@@@    ....                ....................++++@@@@@@@@@@@@"};
