/* XPM */
static char * wall_zelda_xpm[] = {
"64 64 14 1",
" 	c #A0B018",
".	c #603028",
"+	c #202008",
"@	c #20B068",
"#	c #905848",
"$	c #C8B060",
"%	c #E0D078",
"&	c #40C068",
"*	c #B88858",
"=	c #188040",
"-	c #106020",
";	c #609818",
">	c #F8F098",
",	c #186818",
"                ..++++++                                        ",
"                ..++++++                                        ",
"  ++++....@@..##$$%%%%##++                ........              ",
"  ++++....@@..##$$%%%%##++                ........              ",
"++$$%%%%&&$$%%%%%%%%%%**++              ..$$%%%%$$......        ",
"++$$%%%%&&$$%%%%%%%%%%**++              ..$$%%%%$$......        ",
"++%%%%%%&&$$%%%%%%&&&&&&##++      ==++++**%%%%%%%%%%%%$$++++    ",
"++%%%%%%&&$$%%%%%%&&&&&&##++      ==++++**%%%%%%%%%%%%$$++++    ",
"++%%%%&&$$&&&&&&$$$$$$$$##++    ==--==@@&&&&&&%%%%&&&&&&@@$$++  ",
"++%%%%&&$$&&&&&&$$$$$$$$##++    ==--==@@&&&&&&%%%%&&&&&&@@$$++  ",
"++@@&&&&&&$$$$%%%%%%&&**####++  --######$$$$$$&&&&$$$$$$%%%%++  ",
"++@@&&&&&&$$$$%%%%%%&&**####++  --######$$$$$$&&&&$$$$$$%%%%++  ",
"++##$$&&$$%%%%%%%%%%==@@####**++++##****%%%%%%%%$$&&%%%%%%**++;;",
"++##$$&&$$%%%%%%%%%%==@@####**++++##****%%%%%%%%$$&&%%%%%%**++;;",
"++##%%&&$$%%%%%%%%%%##@@..#+++++++##****%%%%%%%%%%@@&&******++++",
"++##%%&&$$%%%%%%%%%%##@@..#+++++++##****%%%%%%%%%%@@&&******++++",
"++..@@==$$%%%%%%##....==@++>>>>>>++#**@@$$%%%%%%%%**&&@@**....++",
"++..@@==$$%%%%%%##....==@++>>>>>>++#**@@$$%%%%%%%%**&&@@**....++",
";;--@@==****##.........++>>$$$$$$>>++@##..######**##@@&&......++",
";;--@@==****##.........++>>$$$$$$>>++@##..######**##@@&&......++",
"  --@@==............;;.++>>$$$$$$>>++@##..##@@######==&&==..;;++",
"  --@@==............;;.++>>$$$$$$>>++@##..##@@######==&&==..;;++",
"  --====....##$$$$..,,.++##>>>>>>##++@..;;..==@@....==@@==++;;,,",
"  --====....##$$$$..,,.++##>>>>>>##++@..;;..==@@....==@@==++;;,,",
"  --==--..##**&&%%%%...++##**##..##++ ..  ..==@@....--@@--++,,,,",
"  --==--..##**&&%%%%...++##**##..##++ ..  ..==@@....--@@--++,,,,",
"  ;;==--..**%%%%&&$$...++##**##..##++ ;;  ....==....--@@--,,,,;;",
"  ;;==--..**%%%%&&$$...++##**##..##++ ;;  ....==....--@@--,,,,;;",
"      --..##  %%@@..,,.++##**##..##++     ;;..  ..  --@@--,,;;;;",
"      --..##  %%@@..,,.++##**##..##++     ;;..  ..  --@@--,,;;;;",
"        ;;..  ..@@,,,,;;;++**##..++,,;;             ;;==;;      ",
"        ;;..  ..@@,,,,;;;++**##..++,,;;             ;;==;;      ",
"    ......@@........    ;++**....++,,,@@##........@@            ",
"    ......@@........    ;++**....++,,,@@##........@@            ",
"  ++**%%%%&&%%%%%%$$++  ;++**..##++,..##&&%%%%%%&&..++++        ",
"  ++**%%%%&&%%%%%%$$++  ;++**..##++,..##&&%%%%%%&&..++++        ",
"++****%%%%$$&&&&&&&&@@++;..**..##...%%%%$$&&%%&&$$%%**##++      ",
"++****%%%%$$&&&&&&&&@@++;..**..##...%%%%$$&&%%&&$$%%**##++      ",
"++##**%%%%&&$$&&&&%%..==;;;##....,..%%%%%%$$&&&&%%%%%%**##++    ",
"++##**%%%%&&$$&&&&%%..==;;;##....,..%%%%%%$$&&&&%%%%%%**##++    ",
"++##**&&&&$$%%$$@@&&**..++;;;;;;++..%%%%%%%%&&$$%%%%%%####++    ",
"++##**&&&&$$%%$$@@&&**..++;;;;;;++..%%%%%%%%&&$$%%%%%%####++    ",
"++##&&$$$$%%%%%%$$@@&&..++      ++##%%%%&&&&$$&&%%%%**####..++  ",
"++##&&$$$$%%%%%%$$@@&&..++      ++##%%%%&&&&$$&&%%%%**####..++  ",
"++==..%%%%%%%%%%$$@@&&..++++++  ++##%%%%&&$$%%@@%%****..##**%%++",
"++==..%%%%%%%%%%$$@@&&..++++++  ++##%%%%&&$$%%@@%%****..##**%%++",
"++==..$$%%%%%%%%**==@@..++****++++##$$&&@@..##@@**..##..**%%%%++",
"++==..$$%%%%%%%%**==@@..++****++++##$$&&@@..##@@**..##..**%%%%++",
"++--..########****====..++  ..++++##$$@@==..##@@==..##....%%%%++",
"++--..########****====..++  ..++++##$$@@==..##@@==..##....%%%%++",
"==--..##......####--==--++;;..,,..####@@==..##@@==..##....;;..++",
"==--..##......####--==--++;;..,,..####@@==..##@@==..##....;;..++",
",,--..............--==--,,,,,,;;..####==....##@@,,;;....++;;++,,",
",,--..............--==--,,,,,,;;..####==....##@@,,;;....++;;++,,",
"--;;++$$$$++......--==,,,,,,;;  ++--==--....--==,,,,..++,,,,,,,,",
"--;;++$$$$++......--==,,,,,,;;  ++--==--....--==,,,,..++,,,,,,,,",
"  ++$$$$$$$$++..;;..  ,,;;      ,,--==--....--==--..++++++,,    ",
"  ++$$$$$$$$++..;;..  ,,;;      ,,--==--....--==--..++++++,,    ",
"  ++$$$$$$$$++..  ..  ;;          --==--..;;--==--..$$&&%%++    ",
"  ++$$$$$$$$++..  ..  ;;          --==--..;;--==--..$$&&%%++    ",
"  ..##  ##..++,,                    ==--..  --==--....@@**++,,;;",
"  ..##  ##..++,,                    ==--..  --==--....@@**++,,;;",
"  ;;..  ....,,,,;;                  ;;;;    ;;--;;;;..==..,,;;;;",
"  ;;..  ....,,,,;;                  ;;;;    ;;--;;;;..==..,,;;;;"};
