/* XPM */
static char * wall_zelda_botton_xpm[] = {
"64 64 7 1",
" 	c #A0B018",
".	c #609818",
"+	c #186818",
"@	c #685008",
"#	c #806808",
"$	c #483808",
"%	c #908810",
"            ........                            ............    ",
"            ........                            ............    ",
"            ........                            ............    ",
"            ........                            ............    ",
"        ....++++....    ........    ....++++........++++........",
"        ....++++....    ........    ....++++........++++........",
"        ....++++....    ........    ....++++........++++........",
"        ....++++....    ........    ....++++........++++........",
"....    ....@@@@++++....++++....    ....@@@@....++++@@@@....@@@@",
"....    ....@@@@++++....++++....    ....@@@@....++++@@@@....@@@@",
"....    ....@@@@++++....++++....    ....@@@@....++++@@@@....@@@@",
"....    ....@@@@++++....++++....    ....@@@@....++++@@@@....@@@@",
"............@@@@@@@@++++@@@@........++++@@@@++++++++@@@@....@@@@",
"............@@@@@@@@++++@@@@........++++@@@@++++++++@@@@....@@@@",
"............@@@@@@@@++++@@@@........++++@@@@++++++++@@@@....@@@@",
"............@@@@@@@@++++@@@@........++++@@@@++++++++@@@@....@@@@",
"++++....++++@@@@####@@@@@@@@++++....@@@@@@@@++++@@@@++++....@@@@",
"++++....++++@@@@####@@@@@@@@++++....@@@@@@@@++++@@@@++++....@@@@",
"++++....++++@@@@####@@@@@@@@++++....@@@@@@@@++++@@@@++++....@@@@",
"++++....++++@@@@####@@@@@@@@++++....@@@@@@@@++++@@@@++++....@@@@",
"@@@@....++++########@@@@####@@@@....++++@@@@@@@@@@@@....++++@@@@",
"@@@@....++++########@@@@####@@@@....++++@@@@@@@@@@@@....++++@@@@",
"@@@@....++++########@@@@####@@@@....++++@@@@@@@@@@@@....++++@@@@",
"@@@@....++++########@@@@####@@@@....++++@@@@@@@@@@@@....++++@@@@",
"@@@@....++++################@@@@........@@@@@@@@####....++++####",
"@@@@....++++################@@@@........@@@@@@@@####....++++####",
"@@@@....++++################@@@@........@@@@@@@@####....++++####",
"@@@@....++++################@@@@........@@@@@@@@####....++++####",
"@@@@........@@@@####@@@@@@@@@@@@++++....++++@@@@####....++++####",
"@@@@........@@@@####@@@@@@@@@@@@++++....++++@@@@####....++++####",
"@@@@........@@@@####@@@@@@@@@@@@++++....++++@@@@####....++++####",
"@@@@........@@@@####@@@@@@@@@@@@++++....++++@@@@####....++++####",
"@@@@++++....@@@@####@@@@@@@@@@@@@@@@++++....########++++....####",
"@@@@++++....@@@@####@@@@@@@@@@@@@@@@++++....########++++....####",
"@@@@++++....@@@@####@@@@@@@@@@@@@@@@++++....########++++....####",
"@@@@++++....@@@@####@@@@@@@@@@@@@@@@++++....########++++....####",
"@@@@@@@@....@@@@####@@@@@@@@@@@@@@@@####....############....####",
"@@@@@@@@....@@@@####@@@@@@@@@@@@@@@@####....############....####",
"@@@@@@@@....@@@@####@@@@@@@@@@@@@@@@####....############....####",
"@@@@@@@@....@@@@####@@@@@@@@@@@@@@@@####....############....####",
"########....@@@@########@@@@@@@@########....############....####",
"########....@@@@########@@@@@@@@########....############....####",
"########....@@@@########@@@@@@@@########....############....####",
"########....@@@@########@@@@@@@@########....############....####",
"####++++++++@@@@############@@@@########++++####@@@@$$$$....####",
"####++++++++@@@@############@@@@########++++####@@@@$$$$....####",
"####++++++++@@@@############@@@@########++++####@@@@$$$$....####",
"####++++++++@@@@############@@@@########++++####@@@@$$$$....####",
"####++++++++@@@@########################++++####@@@@@@@@++++####",
"####++++++++@@@@########################++++####@@@@@@@@++++####",
"####++++++++@@@@########################++++####@@@@@@@@++++####",
"####++++++++@@@@########################++++####@@@@@@@@++++####",
"####++++@@@@################################%%%%%%%%####++++####",
"####++++@@@@################################%%%%%%%%####++++####",
"####++++@@@@################################%%%%%%%%####++++####",
"####++++@@@@################################%%%%%%%%####++++####",
"####++++@@@@############################################++++####",
"####++++@@@@############################################++++####",
"####++++@@@@############################################++++####",
"####++++@@@@############################################++++####",
"####++++@@@@############@@@@############@@@@####################",
"####++++@@@@############@@@@############@@@@####################",
"####++++@@@@############@@@@############@@@@####################",
"####++++@@@@############@@@@############@@@@####################"};
