/* XPM */
static char * enemy_zelda_xpm[] = {
"64 64 34 1",
" 	c #A0B018",
".	c #88A830",
"+	c #A09848",
"@	c #202020",
"#	c #C85850",
"$	c #515268",
"%	c #1E2158",
"&	c #F88078",
"*	c #686F83",
"=	c #D0D4E8",
"-	c #A39AC9",
";	c #609818",
">	c #E0E8F8",
",	c #F8F8F8",
"'	c #F85018",
")	c #F8E038",
"!	c #883040",
"~	c #202840",
"{	c #982820",
"]	c #000000",
"^	c #672294",
"/	c #486080",
"(	c #F8D020",
"_	c #E09028",
":	c #682008",
"<	c #90A8D0",
"[	c #6880A0",
"}	c #B87028",
"|	c #B8C8F0",
"1	c #B01ECD",
"2	c #F8C848",
"3	c #408870",
"4	c #50B8D8",
"5	c #0888F8",
"                      ..                                        ",
"                      ..                                        ",
"                        ..  ..        ..                        ",
"                        ..  ..        ..                        ",
"..  ..                ++..++..        ..  ..    ..  ..          ",
"..  ..                ++..++..        ..  ..    ..  ..          ",
"......  ..    @@@@@@@@@+++++++    ..  ......    ......  @@@@@@@@",
"......  ..    @@@@@@@@@+++++++    ..  ......    ......  @@@@@@@@",
"  ........  ..@@@##$$%%@@@@@@     .%%%%%%%%       @@@@@@%%$$##@@",
"  ........  ..@@@##$$%%@@@@@@     .%%%%%%%%       @@@@@@%%$$##@@",
"  ..  ..    ..@@@##&&$$$$%%%%%%%%**========**%%%%%%%%%$$$$&&##@@",
"  ..  ..    ..@@@##&&$$$$%%%%%%%%**========**%%%%%%%%%$$$$&&##@@",
"..    ..      .. $$&&&&##$$%%**--============--***%%$$##&&&&$$..",
"..    ..      .. $$&&&&##$$%%**--============--***%%$$##&&&&$$..",
"..               @@##&&&&##$$--==##========##==---$$##&&&&##@@  ",
"..               @@##&&&&##$$--==##========##==---$$##&&&&##@@  ",
"      ..           @@##&&&&**======##====##=======**&&&&##@@    ",
"      ..           @@##&&&&**======##====##=======**&&&&##@@    ",
"..    ..             @@##**==========####===========**##@@      ",
"..    ..             @@##**==========####===========**##@@      ",
"....  ;;  ..    ..  .@@##**==========####===========**##@@..    ",
"....  ;;  ..    ..  .. @@--==========####===========--@@  ..    ",
"  ;;++..++;;    ...... @@--==========####===========--@@++;;    ",
"  ;;++..++;;    ...... **====--====##====##====---====**++;;    ",
"++;;++++;;++++    .....**====--====##====##====---====**;;++++  ",
"++;;++++;;++++    .....--====>>$$============$$,,,====--;;++++  ",
"''''))))      '''';;  .--====>>$$============$$,,,====--;;++++  ",
"''''))))      '''';;  .$$**--==!!~~========@@{{===--**$$;;++++  ",
"''''))))))  ))))));;  .$$**--==!!~~========@@{{===--**$$++++    ",
"''''))))))  ))))));;  .. **$$**==>>**====**,,==***$$**++++++    ",
"      ))));;))))         **$$**==>>**====**,,==***$$**  ++      ",
"      ))));;))))       **==--~~**============**@@@--==**++      ",
"''''    ;;;;;;         **==--~~**============**@@@--==**        ",
"]]]]]]]]]];;;;   ]]]]]]--==**^^^^~~==~~~~==~~^^^^^**==--]]      ",
"]]]]]]]]]];;)))) ]]]]]]--==**^^^^~~==~~~~==~~^^^^^**==--]]  ..  ",
"]]////////]]]]]]]((__]]====~~^^^^^^~~~~~~~~^^^^^^^~~**==::  ..  ",
"]]////////]]]]]]]((__]]====~~^^^^^^~~~~~~~~^^^^^^^~~**==::++..  ",
"  ]]<<[[///////////((]]%%~~  ~~~~^^^^}}}}^^^^~~~~~  ~~::}}~~..  ",
"  ]]<<[[///////////((]]%%~~  ~~~~^^^^}}}}^^^^~~~~~  ~~::}}~~++  ",
"  ;;]]<<||<</////]]((]]%%~~~~^^11~~~~2222~~~~11^^^~~~~::::~~++  ",
"  ;;]]<<||<</////]]((]]%%~~~~^^11~~~~2222~~~~11^^^~~~~::::~~    ",
"  ;;;;]]]]|||||||]]__]]~~.  .~~^^111111111111^^~~~    ~~~~      ",
"      ]]]]|||||||]]__]]~~   .~~^^111111111111^^~~~    ~~~~      ",
"          ]]]]]]]__}}]].   $$--**~~^^^^^^^^~~**---$$            ",
"          ]]]]]]]__}}]].   $$--**~~^^^^^^^^~~**---$$            ",
"          ]]]]]]]__}}]].   $$--**~~^^^^^^^^~~**---$$            ",
"                .]]]]      ~~**~~~~33333333~~~~***~~            ",
"                .]]]]      ~~**~~~~33333333~~~~***~~            ",
"      ..              .. ~~1111^^~~33333333~~^^11111~~          ",
"      ..              .. ~~1111^^~~33333333~~^^11111~~          ",
"        ..  ..  ..    .. ~~~~~~~~333333333333~~~~~~~~~          ",
"        ..  ..  ..    .. ~~~~~~~~333333333333~~~~~~~~~          ",
"      ++..++..  ....  ;; 33333333333333333333333333333 4444     ",
"      ++..++..  ....  ;; 33333333333333333333333333333 4444     ",
"      ++++++++    ;;++..++;33333333333333333333333334554444     ",
"      ++++++++    ;;++..++;33333333333333333333333334554444     ",
"                ++;;++++;;++++ 3333333333333333    555555    .  ",
"                ++;;++++;;++++ 3333333333333333    555555    .  ",
"                ++..++++;;++++  ++..++++;;++++   4444554444  ...",
"                ++..++++;;++++  ++..++++;;++++   4444554444  ...",
"                ++++++++++++    ++++++++++++    .4444  4444;; ..",
"                ++++++++++++    ++++++++++++    .4444  4444;; ..",
"                    ++  ++          ++  ++      .;;;;  ;;;;;;   ",
"                    ++  ++          ++  ++      .;;;;  ;;;;;;   "};
