/* XPM */
static char * enemy_zelda_xpm[] = {
"64 64 28 1",
" 	c #A0B018",
".	c #202020",
"+	c #C85850",
"@	c #515268",
"#	c #1E2158",
"$	c #F88078",
"%	c #686F83",
"&	c #D0D4E8",
"*	c #A39AC9",
"=	c #E0E8F8",
"-	c #F8F8F8",
";	c #883040",
">	c #202840",
",	c #982820",
"'	c #000000",
")	c #672294",
"!	c #486080",
"~	c #F8D020",
"{	c #E09028",
"]	c #682008",
"^	c #90A8D0",
"/	c #6880A0",
"(	c #88A830",
"_	c #B87028",
":	c #B8C8F0",
"<	c #B01ECD",
"[	c #F8C848",
"}	c #408870",
"                                                                ",
"                                                                ",
"                                                                ",
"                                                                ",
"                                                                ",
"              .........                                 ........",
"              .........                                 ........",
"              ...++@@##......      ########       ......##@@++..",
"              ...++@@##......      ########       ......##@@++..",
"              ...++$$@@@@########%%&&&&&&&&%%#########@@@@$$++..",
"              ...++$$@@@@########%%&&&&&&&&%%#########@@@@$$++..",
"                 @@$$$$++@@##%%**&&&&&&&&&&&&**%%%##@@++$$$$@@  ",
"                 @@$$$$++@@##%%**&&&&&&&&&&&&**%%%##@@++$$$$@@  ",
"                 ..++$$$$++@@**&&++&&&&&&&&++&&***@@++$$$$++..  ",
"                 ..++$$$$++@@**&&++&&&&&&&&++&&***@@++$$$$++..  ",
"                   ..++$$$$%%&&&&&&++&&&&++&&&&&&&%%$$$$++..    ",
"                   ..++$$$$%%&&&&&&++&&&&++&&&&&&&%%$$$$++..    ",
"                     ..++%%&&&&&&&&&&++++&&&&&&&&&&&%%++..      ",
"                     ..++%%&&&&&&&&&&++++&&&&&&&&&&&%%++..      ",
"                     ..++%%&&&&&&&&&&++++&&&&&&&&&&&%%++..      ",
"                       ..**&&&&&&&&&&++++&&&&&&&&&&&**..        ",
"                       ..**&&&&&&&&&&++++&&&&&&&&&&&**..        ",
"                       %%&&&&**&&&&++&&&&++&&&&***&&&&%%        ",
"                       %%&&&&**&&&&++&&&&++&&&&***&&&&%%        ",
"                       **&&&&==@@&&&&&&&&&&&&@@---&&&&**        ",
"                       **&&&&==@@&&&&&&&&&&&&@@---&&&&**        ",
"                       @@%%**&&;;>>&&&&&&&&..,,&&&**%%@@        ",
"                       @@%%**&&;;>>&&&&&&&&..,,&&&**%%@@        ",
"                         %%@@%%&&==%%&&&&%%--&&%%%@@%%          ",
"                         %%@@%%&&==%%&&&&%%--&&%%%@@%%          ",
"                       %%&&**>>%%&&&&&&&&&&&&%%...**&&%%        ",
"                       %%&&**>>%%&&&&&&&&&&&&%%...**&&%%        ",
"''''''''''       ''''''**&&%%))))>>&&>>>>&&>>)))))%%&&**''      ",
"''''''''''       ''''''**&&%%))))>>&&>>>>&&>>)))))%%&&**''      ",
"''!!!!!!!!'''''''~~{{''&&&&>>))))))>>>>>>>>)))))))>>%%&&]]      ",
"''!!!!!!!!'''''''~~{{''&&&&>>))))))>>>>>>>>)))))))>>%%&&]]      ",
"  ''^^//!!!!!!!!!!!~~''##>>( >>>>))))____))))>>>>>  >>]]__>>    ",
"  ''^^//!!!!!!!!!!!~~''##>>( >>>>))))____))))>>>>>  >>]]__>>    ",
"    ''^^::^^!!!!!''~~''##>>>>))<<>>>>[[[[>>>><<)))>>>>]]]]>>    ",
"    ''^^::^^!!!!!''~~''##>>>>))<<>>>>[[[[>>>><<)))>>>>]]]]>>    ",
"((((  '''':::::::''{{''>>((( >>))<<<<<<<<<<<<))>>>  ((>>>>      ",
"((((  '''':::::::''{{''>>((( >>))<<<<<<<<<<<<))>>>  ((>>>>      ",
"((((      '''''''{{__''((((@@**%%>>))))))))>>%%***@@((((        ",
"((((      '''''''{{__''((((@@**%%>>))))))))>>%%***@@((((        ",
"((((    (('''''''{{__''(   @@**%%>>))))))))>>%%***@@((((        ",
"((((    ((((     ''''(((   >>%%>>>>}}}}}}}}>>>>%%%>>((((        ",
"((((    ((((     ''''(((   >>%%>>>>}}}}}}}}>>>>%%%>>((((        ",
"((((    ((((        (((( >><<<<))>>}}}}}}}}>>))<<<<<>>((        ",
"((((((((((((             >><<<<))>>}}}}}}}}>>))<<<<<>>          ",
"((((((((((((             >>>>>>>>}}}}}}}}}}}}>>>>>>>>>          ",
"((((((((((((             >>>>>>>>}}}}}}}}}}}}>>>>>>>>>          ",
"((((((((((((             }}}}}}}}}}}}}}}}}}}}}}}}}}}}}          ",
"    ((((        ((((     }}}}}}}}}}}}}}}}}}}}}}}}}}}}}          ",
"    ((((        ((((       }}}}}}}}}}}}}}}}}}}}}}}}}            ",
"    ((((        ((((       }}}}}}}}}}}}}}}}}}}}}}}}}            ",
"    ((((        ((((           }}}}}}}}}}}}}}}}                 ",
"                ((((    ((((   }}}}}}}}}}}}}}}}                 ",
"                ((((    ((((                                    ",
"                ((((    ((((                                    ",
"                ((((    ((((                                    ",
"                        ((((                                    ",
"                        ((((                                    ",
"                        ((((                                    ",
"                        ((((                                    "};
